<?xml version="1.0" encoding="UTF-8" standalone="no"?>
<svg
   xmlns:dc="http://purl.org/dc/elements/1.1/"
   xmlns:cc="http://creativecommons.org/ns#"
   xmlns:rdf="http://www.w3.org/1999/02/22-rdf-syntax-ns#"
   xmlns:svg="http://www.w3.org/2000/svg"
   xmlns="http://www.w3.org/2000/svg"
   xmlns:sodipodi="http://sodipodi.sourceforge.net/DTD/sodipodi-0.dtd"
   xmlns:inkscape="http://www.inkscape.org/namespaces/inkscape"
   sodipodi:docname="logo.svg"
   inkscape:version="1.0 (4035a4fb49, 2020-05-01)"
   id="svg8"
   version="1.1"
   viewBox="0 0 261.75037 260.19299"
   height="260.19299mm"
   width="261.75037mm">
  <defs
     id="defs2" />
  <sodipodi:namedview
     inkscape:window-maximized="1"
     inkscape:window-y="0"
     inkscape:window-x="0"
     inkscape:window-height="1016"
     inkscape:window-width="1920"
     fit-margin-bottom="0"
     fit-margin-right="0"
     fit-margin-left="0"
     fit-margin-top="0"
     showgrid="false"
     inkscape:document-rotation="0"
     inkscape:current-layer="layer1"
     inkscape:document-units="mm"
     inkscape:cy="652.37516"
     inkscape:cx="559.82556"
     inkscape:zoom="0.54983875"
     inkscape:pageshadow="2"
     inkscape:pageopacity="0.0"
     borderopacity="1.0"
     bordercolor="#666666"
     pagecolor="#ffffff"
     id="base" />
  <metadata
     id="metadata5">
    <rdf:RDF>
      <cc:Work
         rdf:about="">
        <dc:format>image/svg+xml</dc:format>
        <dc:type
           rdf:resource="http://purl.org/dc/dcmitype/StillImage" />
        <dc:title></dc:title>
      </cc:Work>
    </rdf:RDF>
  </metadata>
  <g
     transform="translate(73.467159,107.86055)"
     id="layer1"
     inkscape:groupmode="layer"
     inkscape:label="Layer 1">
    <g
       style="fill:#666666;fill-opacity:1;stroke:#666666"
       transform="matrix(4.3561142,0,0,4.3561142,-584.64129,-509.1861)"
       id="g847">
      <path
         id="path861"
         d="m 132.1722,150.54434 c -1.09371,-1.11441 -1.13581,-1.2112 -0.72447,-1.66573 0.78049,-0.86243 2.07119,-4.05971 2.46073,-6.09564 0.2917,-1.52461 0.36412,-3.93697 0.31059,-10.3463 -0.0609,-7.29594 -0.0106,-8.57669 0.39592,-10.07792 1.78365,-6.58663 7.18303,-11.89278 13.62103,-13.38585 1.6205,-0.37582 7.29683,-0.64654 7.57199,-0.36113 0.0641,0.0665 0.15824,0.81048 0.20914,1.65325 l 0.0925,1.53231 -2.87351,0.10648 c -1.58043,0.0586 -2.94376,0.17674 -3.02963,0.2626 -0.0859,0.0859 1.24998,1.56587 2.96853,3.28892 l 3.12465,3.1328 -0.18419,1.09017 c -0.1013,0.5996 -0.30169,1.1628 -0.44531,1.25157 -0.14362,0.0888 -2.14699,-1.71121 -4.45192,-3.99993 l -4.19078,-4.16132 -1.41204,0.8177 c -0.77663,0.44973 -1.76923,1.11252 -2.20579,1.47288 l -0.79376,0.65519 5.42396,5.44406 c 2.98318,2.99423 5.59876,5.41105 5.81241,5.3707 0.63022,-0.11902 2.31681,-2.76352 2.97251,-4.66075 0.66186,-1.91505 0.70338,-3.24297 0.47686,-15.25236 -0.0904,-4.79203 -0.0459,-5.48653 0.47117,-7.355542 0.56053,-2.026089 1.94888,-4.964462 2.96274,-6.270497 l 0.51348,-0.661458 1.22138,1.214859 1.22138,1.214858 -0.82377,1.298683 c -0.45306,0.714276 -1.13222,2.251183 -1.50924,3.41535 -0.79734,2.462067 -0.88949,5.050137 -0.5048,14.176357 0.20255,4.80536 0.1747,5.67577 -0.23708,7.40834 -1.58993,6.68952 -6.9611,12.14695 -13.63537,13.85431 -0.94589,0.24197 -3.10056,0.50988 -4.78816,0.59535 l -3.06837,0.1554 -0.17278,-0.86389 c -0.095,-0.47514 -0.17277,-1.26572 -0.17277,-1.75686 v -0.89297 l 1.78593,-0.003 c 0.98227,-0.002 2.24293,-0.0784 2.80147,-0.17069 l 1.01554,-0.16779 -2.83076,-2.83957 -2.83076,-2.83956 0.18641,-1.35536 c 0.10252,-0.74545 0.30511,-1.35537 0.45018,-1.35537 0.14508,0 1.92392,1.63466 3.95297,3.63257 2.02905,1.99791 3.87139,3.73453 4.09409,3.85916 0.45349,0.25378 2.65811,-0.72881 3.88423,-1.73119 l 0.73534,-0.60116 -5.5735,-5.55625 -5.5735,-5.55625 -0.52315,0.66146 c -0.98373,1.24381 -2.12788,3.96207 -2.5114,5.96658 -0.29455,1.53944 -0.36828,3.94425 -0.3185,10.38758 0.0705,9.12059 -0.0262,9.94913 -1.5492,13.27917 -0.76079,1.66346 -2.18945,3.96875 -2.45955,3.96875 -0.10006,0 -0.70445,-0.53242 -1.3431,-1.18316 z m -4.68153,-9.78084 c -2.30414,-2.26279 -4.2734,-4.11486 -4.37613,-4.11571 -0.10274,-8.5e-4 -0.79259,0.35565 -1.533,0.79221 -0.74041,0.43656 -1.43524,0.79375 -1.54405,0.79375 -0.10882,0 -0.71192,-0.52379 -1.34022,-1.16398 l -1.14236,-1.16398 1.53134,-0.97959 c 2.04884,-1.31063 4.89032,-2.42079 7.09921,-2.77367 2.11634,-0.33808 6.02328,-0.43642 6.4661,-0.16274 0.17052,0.10539 0.30706,0.81321 0.30706,1.59181 v 1.40203 l -3.1717,0.25475 c -1.74444,0.14011 -3.25663,0.33968 -3.36044,0.44349 -0.1038,0.1038 1.27441,1.6554 3.06269,3.44799 l 3.25143,3.25925 -0.22601,1.14285 c -0.1243,0.62856 -0.36294,1.18849 -0.5303,1.24428 -0.16736,0.0558 -2.18949,-1.74995 -4.49362,-4.01274 z m 34.69226,-28.59121 c -0.0419,-0.14552 -0.13364,-0.91942 -0.20378,-1.71979 l -0.12752,-1.45521 2.68527,-0.059 c 4.50339,-0.0989 4.45957,0.12256 0.7177,-3.62831 l -3.2496,-3.25742 0.17418,-1.03096 c 0.0958,-0.56703 0.25763,-1.164586 0.35963,-1.327901 0.11394,-0.182455 1.86242,1.322151 4.53512,3.902581 l 4.34968,4.19951 1.07428,-0.60627 c 0.59085,-0.33345 1.33977,-0.77487 1.66426,-0.98092 0.55066,-0.34968 0.66921,-0.2969 1.77859,0.79188 1.39443,1.36853 1.36308,1.45334 -1.0326,2.79308 -1.61647,0.90398 -3.13767,1.53445 -4.90785,2.03409 -1.37017,0.38673 -7.72447,0.66687 -7.81736,0.34464 z"
         style="fill:#666666;fill-opacity:1;stroke:#666666;stroke-width:0.264583" />
      <path
         id="path859"
         d="m 132.27261,150.65239 -1.07511,-1.07511 1.14571,-2.29832 c 1.8454,-3.70194 2.02059,-5.02354 1.81276,-13.67542 -0.19217,-8.00024 -0.0494,-9.76165 1.04767,-12.92082 0.86184,-2.48189 2.07251,-4.38859 4.11472,-6.48033 3.98769,-4.08439 7.66339,-5.58809 13.68245,-5.59738 l 2.97656,-0.005 v 1.45521 c 0,0.80036 -0.0298,1.53593 -0.0661,1.63458 -0.0364,0.0987 -0.63575,0.14915 -1.33193,0.1122 -0.69618,-0.0369 -2.04841,0.0166 -3.00496,0.11907 l -1.73917,0.18625 3.23229,3.24006 3.23228,3.24007 -0.1842,1.09031 c -0.10132,0.59967 -0.30172,1.16293 -0.44534,1.2517 -0.14362,0.0888 -2.14557,-1.7098 -4.44877,-3.99681 l -4.18764,-4.15819 -1.59061,0.84779 c -0.87484,0.46628 -1.8637,1.13847 -2.19747,1.49376 l -0.60686,0.64597 5.54242,5.54714 c 3.04833,3.05093 5.60301,5.54249 5.67707,5.53682 0.29954,-0.023 1.93959,-2.49788 2.50476,-3.77981 1.26879,-2.87788 1.47103,-5.99598 0.91239,-14.06694 -0.34004,-4.91269 -0.0602,-8.1399 0.95888,-11.056628 0.63864,-1.82791 2.64497,-5.482138 3.00994,-5.482138 0.0985,0 0.68422,0.514642 1.30154,1.143649 l 1.12241,1.143649 -0.94612,1.568331 c -0.52037,0.862581 -1.20416,2.401767 -1.51954,3.420413 -0.66148,2.136484 -0.7463,5.380304 -0.3736,14.287504 0.20664,4.93862 0.1843,5.43238 -0.3349,7.40079 -1.39176,5.27659 -4.86701,9.55472 -9.77042,12.02769 -2.31759,1.16884 -4.91387,1.7784 -8.53142,2.003 l -3.06949,0.19058 -0.16874,-1.02145 c -0.0928,-0.56179 -0.17006,-1.34887 -0.17166,-1.74905 -0.003,-0.72189 0.0111,-0.72763 1.78302,-0.73052 0.98227,-0.002 2.24293,-0.0784 2.80147,-0.1707 l 1.01554,-0.16778 -2.83076,-2.83957 -2.83076,-2.83956 0.18641,-1.35537 c 0.10252,-0.74544 0.26453,-1.35303 0.36002,-1.35019 0.0955,0.003 1.95633,1.72925 4.13522,3.83646 2.17888,2.10721 4.15042,3.83129 4.38118,3.83129 0.43263,0 3.30364,-1.62946 3.89849,-2.21261 0.26869,-0.2634 -0.74109,-1.39998 -5.09842,-5.73865 -2.9884,-2.97561 -5.56343,-5.4102 -5.72229,-5.4102 -0.435,0 -2.18987,3.04816 -2.76559,4.80377 -0.46011,1.40303 -0.50757,2.40388 -0.51244,10.80665 -0.006,9.60256 -0.0622,10.22661 -1.2119,13.36146 -0.57754,1.57471 -2.52334,5.02708 -2.83333,5.02708 -0.10478,0 -0.67431,-0.4838 -1.26562,-1.07511 z m -4.66643,-9.9051 c -2.26339,-2.25557 -4.28343,-4.10104 -4.48898,-4.10104 -0.20555,0 -0.93695,0.35719 -1.62534,0.79375 -0.68839,0.43656 -1.34175,0.79375 -1.45192,0.79375 -0.11017,0 -0.70696,-0.51624 -1.32621,-1.14721 l -1.1259,-1.14721 1.01785,-0.67357 c 3.31673,-2.19491 6.30754,-3.12924 10.61042,-3.3147 3.71573,-0.16015 3.73195,-0.15227 3.73847,1.81688 l 0.004,1.22273 -2.95556,0.19156 c -1.62556,0.10536 -3.17276,0.2719 -3.43822,0.3701 -0.39774,0.14714 0.0989,0.75874 2.82328,3.47653 1.81825,1.8139 3.30526,3.41884 3.30444,3.56654 -0.003,0.58999 -0.56557,2.25293 -0.76184,2.25293 -0.1151,0 -2.06114,-1.84546 -4.32454,-4.10104 z m 34.41396,-30.00275 -0.0896,-1.56005 3.24114,-0.18639 c 1.78263,-0.10251 3.24115,-0.26555 3.24115,-0.36231 0,-0.0968 -1.4363,-1.60282 -3.19178,-3.3468 -3.18353,-3.16267 -3.19137,-3.17353 -3.03307,-4.20376 0.0873,-0.5681 0.24367,-1.181325 0.34751,-1.362727 0.12585,-0.219863 1.63054,1.076227 4.51335,3.887667 l 4.32455,4.21749 1.73839,-0.95553 1.73839,-0.95554 1.18717,1.18718 1.18718,1.18718 -1.54002,0.98514 c -3.26317,2.08743 -6.60821,3.01659 -10.88619,3.0239 l -2.68848,0.005 z"
         style="fill:#666666;fill-opacity:1;stroke:#666666;stroke-width:0.264583" />
      <path
         id="path857"
         d="m 132.22208,150.59517 -1.11129,-1.13233 0.61879,-0.91819 c 0.8402,-1.24674 1.98447,-4.18554 2.30516,-5.92036 0.151,-0.81684 0.23165,-5.07822 0.18896,-9.98535 -0.066,-7.58771 -0.0204,-8.75072 0.40134,-10.23538 1.00132,-3.52502 2.2582,-5.65935 4.94403,-8.39551 2.20994,-2.25136 4.11642,-3.48401 6.87162,-4.44292 1.96378,-0.68346 2.73838,-0.80292 5.89866,-0.90966 l 3.63802,-0.12288 v 1.62141 1.62142 l -2.05052,0.0153 c -1.12778,0.008 -2.49963,0.0977 -3.04854,0.19843 l -0.99802,0.18319 3.17498,3.16503 3.17498,3.16502 -0.16027,1.06831 c -0.0881,0.58757 -0.25615,1.17347 -0.37335,1.30199 -0.1172,0.12853 -2.11533,-1.63623 -4.4403,-3.92169 l -4.22723,-4.15538 -0.88367,0.43968 c -1.42433,0.70869 -3.39616,2.08972 -3.39671,2.37899 -2.9e-4,0.14682 2.48959,2.75493 5.53306,5.79581 l 5.53357,5.52886 0.68745,-0.76872 c 0.90368,-1.01052 2.39763,-4.13096 2.77482,-5.79581 0.41394,-1.82702 0.43588,-6.08712 0.0572,-11.11399 -0.57194,-7.5934 0.26336,-11.373514 3.65358,-16.533985 0.21532,-0.327758 0.46217,-0.197555 1.43437,0.756592 l 1.17429,1.15248 -1.00262,1.889241 c -2.09433,3.946322 -2.23833,5.322612 -1.80332,17.235072 0.20301,5.55934 0.0286,7.24198 -1.02678,9.90539 -0.86421,2.18099 -2.08492,4.04657 -3.85886,5.89737 -3.70484,3.86538 -7.63165,5.53374 -13.84837,5.88368 l -2.94001,0.16549 -0.16593,-1.00409 c -0.0913,-0.55225 -0.16724,-1.33151 -0.16884,-1.73169 l -0.003,-0.72761 2.18281,-0.0264 c 3.88386,-0.0469 3.86595,0.0469 0.62609,-3.2805 l -2.8232,-2.89946 0.17334,-1.19631 c 0.0953,-0.65798 0.21696,-1.24527 0.27027,-1.3051 0.0533,-0.0598 1.87664,1.63681 4.05185,3.77031 2.17521,2.13351 4.15872,3.8791 4.40781,3.8791 0.54074,0 3.59659,-1.67177 4.04628,-2.21361 0.26051,-0.31391 -0.64924,-1.33835 -5.17775,-5.83048 -3.02159,-2.99731 -5.5783,-5.44966 -5.68159,-5.44966 -0.32053,0 -1.2759,1.50051 -2.06885,3.24932 -1.26074,2.78049 -1.4096,4.28893 -1.21986,12.3611 0.18778,7.9891 -0.015,10.20869 -1.23769,13.54685 -0.59472,1.6237 -2.51229,4.96618 -2.85224,4.97167 -0.0788,0.001 -0.64343,-0.50724 -1.25465,-1.13002 z m -4.66919,-9.96192 -4.2089,-4.21508 -1.21196,0.64557 c -0.66657,0.35506 -1.4176,0.79101 -1.66895,0.96878 -0.39075,0.27636 -0.63132,0.15215 -1.65936,-0.8568 l -1.20236,-1.18003 0.60103,-0.46278 c 1.11064,-0.85519 4.02529,-2.2692 5.89269,-2.85877 1.33198,-0.42053 2.78828,-0.62307 5.18585,-0.72125 l 3.33377,-0.13651 0.16835,0.629 c 0.0926,0.34595 0.16997,1.0593 0.17196,1.58522 l 0.004,0.95622 -3.07626,0.18944 c -1.69194,0.10419 -3.25085,0.25643 -3.46423,0.33831 -0.27156,0.10421 0.61675,1.15583 2.96053,3.50482 3.10455,3.11146 3.33585,3.41229 3.17505,4.12942 -0.31244,1.3934 -0.42199,1.69952 -0.60821,1.69952 -0.10104,0 -2.07771,-1.89678 -4.39261,-4.21508 z m 34.46725,-29.88871 -0.0896,-1.56005 3.24114,-0.18639 c 1.78263,-0.10251 3.24115,-0.26555 3.24115,-0.36231 0,-0.0968 -1.42875,-1.60096 -3.175,-3.34266 -1.74625,-1.7417 -3.175,-3.33337 -3.175,-3.53705 0,-0.20367 0.13937,-0.83549 0.30972,-1.40405 l 0.30971,-1.033739 4.30532,4.276809 4.30532,4.27681 1.77863,-0.97766 1.77864,-0.97766 1.18717,1.18718 1.18718,1.18718 -1.56157,1.00088 c -3.24142,2.07756 -6.6774,3.00708 -11.12922,3.01076 l -2.4239,0.002 z"
         style="fill:#666666;fill-opacity:1;stroke:#666666;stroke-width:0.264583" />
      <path
         id="path855"
         d="m 132.35086,150.72416 c -1.11887,-1.14583 -1.17384,-1.4205 -0.47949,-2.39563 0.75626,-1.06206 1.83424,-3.87987 2.1496,-5.61898 0.17138,-0.94511 0.25204,-4.87606 0.20704,-10.08968 l -0.0737,-8.54133 0.74035,-2.37176 c 0.99153,-3.17644 2.21104,-5.11818 4.92459,-7.84108 3.78201,-3.79505 7.79835,-5.36308 13.33997,-5.2081 l 2.68589,0.0751 0.0794,1.52135 0.0794,1.52136 h -2.22909 c -1.226,0 -2.61211,0.0766 -3.08024,0.17023 l -0.85115,0.17023 3.18724,3.20321 3.18725,3.2032 -0.15505,1.12448 c -0.0887,0.64353 -0.29713,1.12448 -0.48724,1.12448 -0.18271,0 -2.13006,-1.79444 -4.32745,-3.98764 -3.43422,-3.42768 -4.07932,-3.96166 -4.5939,-3.80267 -0.8855,0.2736 -3.90594,2.30216 -3.90594,2.62327 0,0.30364 10.86965,11.25246 11.17109,11.25246 0.40455,0 2.32293,-3.19252 2.8391,-4.72473 0.94211,-2.7966 1.14133,-5.21078 0.79696,-9.65762 -0.43898,-5.66849 -0.39657,-9.96826 0.12172,-12.34057 0.46307,-2.119558 2.41829,-6.453327 3.25179,-7.207633 0.48261,-0.436758 0.54989,-0.408868 1.60149,0.663882 l 1.09773,1.119794 -0.7527,1.207862 c -0.41398,0.664324 -1.08158,2.093074 -1.48355,3.175 -0.81639,2.197355 -0.88113,3.695705 -0.67375,15.593175 0.0967,5.54929 0.0822,5.74036 -0.59161,7.80521 -1.87565,5.74743 -6.78317,10.54007 -12.44897,12.15754 -1.72383,0.49212 -7.08629,1.00571 -8.02937,0.76901 -0.39239,-0.0985 -0.60512,-0.3502 -0.60701,-0.71825 -0.002,-0.31165 -0.0767,-1.01312 -0.16691,-1.55882 l -0.164,-0.99219 2.34972,-0.0186 c 3.83685,-0.0304 3.82862,0.0191 0.55507,-3.33774 -3.01536,-3.09211 -3.02607,-3.11469 -2.41033,-5.08003 0.0721,-0.23011 1.5846,1.07499 4.06286,3.50573 2.1714,2.12977 4.14658,3.87231 4.38928,3.87231 0.59941,0 3.41809,-1.52347 3.99201,-2.15764 0.44971,-0.49693 0.29749,-0.6766 -5.11773,-6.04081 -6.25806,-6.19911 -5.63047,-5.90847 -7.14928,-3.31092 -1.78867,3.05906 -1.7837,3.0222 -1.79994,13.36145 -0.0155,9.85823 -0.1183,10.92616 -1.35294,14.05369 -0.51667,1.30883 -2.49917,4.73173 -2.74055,4.73173 -0.0868,0 -0.59867,-0.4515 -1.13753,-1.00334 z m -4.70823,-10.03494 -4.34522,-4.29141 -1.69363,0.93869 -1.69363,0.93869 -1.14914,-1.14914 -1.14914,-1.14914 1.38952,-0.91081 c 3.1256,-2.04879 7.10199,-3.18235 11.16333,-3.18235 h 2.46317 l 0.16537,0.82682 c 0.0909,0.45476 0.16536,1.15127 0.16536,1.54781 v 0.72097 l -3.23897,0.18305 c -1.78144,0.10068 -3.33715,0.28122 -3.45714,0.40121 -0.11998,0.11999 1.28012,1.73943 3.11135,3.59878 l 3.32949,3.38061 -0.35775,1.21881 -0.35776,1.21882 z m 34.59655,-28.56102 c -0.097,-0.097 -0.17639,-0.81139 -0.17639,-1.5875 v -1.41112 h 1.1507 c 2.10492,0 5.21807,-0.34066 5.14201,-0.56267 -0.0413,-0.12042 -1.48195,-1.63671 -3.20156,-3.36954 -3.02217,-3.04539 -3.12088,-3.18089 -2.95631,-4.05812 0.36327,-1.936369 0.38748,-1.923814 4.82213,2.50023 2.29744,2.29195 4.27485,4.16719 4.39423,4.16719 0.11938,0 0.94183,-0.42478 1.82767,-0.94396 l 1.61062,-0.94396 1.16975,1.16975 1.16975,1.16975 -1.67752,1.0468 c -2.23978,1.39766 -3.91083,2.07521 -6.36271,2.57982 -2.03288,0.41838 -6.57734,0.57835 -6.91237,0.24333 z"
         style="fill:#666666;fill-opacity:1;stroke:#666666;stroke-width:0.264583" />
      <path
         id="path853"
         d="m 132.15063,150.52159 -0.9118,-0.94133 0.88051,-1.59069 c 2.04766,-3.69925 2.02097,-3.51469 2.04263,-14.12144 0.0185,-9.03365 0.0501,-9.63358 0.61275,-11.62975 0.96537,-3.42476 2.22087,-5.52127 4.92238,-8.21965 3.80684,-3.80245 6.825,-5.08921 12.53775,-5.34534 3.72441,-0.16698 3.732,-0.16323 3.73847,1.84526 l 0.004,1.25677 -2.57968,0.0186 c -1.41883,0.0102 -2.78693,0.10069 -3.04022,0.20103 -0.37375,0.14805 0.12696,0.78427 2.65709,3.37621 3.09209,3.16762 3.11677,3.20282 3.01243,4.29689 -0.0579,0.60671 -0.2435,1.10311 -0.41255,1.10311 -0.16904,0 -2.0913,-1.78528 -4.27169,-3.96728 -2.18038,-2.182 -4.15742,-3.96794 -4.39341,-3.96875 -0.23599,-8.2e-4 -1.3553,0.60318 -2.48737,1.3422 l -2.05829,1.34367 2.35507,2.375 c 4.93354,4.97528 8.869,8.83137 9.09311,8.90973 0.36921,0.1291 2.40197,-3.04399 2.95128,-4.60686 0.9231,-2.62639 1.13234,-5.10861 0.79869,-9.4751 -0.64726,-8.47091 -0.31979,-12.63109 1.27218,-16.161984 0.85282,-1.891493 2.04912,-3.836458 2.35971,-3.836458 0.12245,0 0.50791,0.270841 0.85658,0.60187 1.39685,1.326171 1.39385,1.280855 0.23422,3.533043 -1.75746,3.413279 -1.88034,4.476899 -1.67967,14.538299 0.17076,8.56171 0.16169,8.79391 -0.41843,10.71563 -0.88526,2.93253 -2.02994,4.8636 -4.31213,7.27458 -3.97116,4.19526 -8.08825,5.91962 -14.15827,5.9299 l -2.71198,0.005 v -1.5875 -1.5875 h 2.49793 c 1.54179,0 2.56726,-0.11218 2.67906,-0.29307 0.10401,-0.16831 -1.0131,-1.49191 -2.62385,-3.10886 -2.07423,-2.0822 -2.77633,-2.95363 -2.695,-3.34494 0.47419,-2.28141 0.0309,-2.46637 4.34393,1.81228 2.6437,2.62261 4.09484,3.87626 4.4869,3.87626 0.5733,0 2.79354,-1.15498 3.94555,-2.0525 l 0.59598,-0.46432 -5.67375,-5.66915 -5.67376,-5.66916 -0.54373,0.64371 c -0.83139,0.98427 -2.0746,3.63752 -2.53312,5.40621 -0.32456,1.25194 -0.39644,2.81791 -0.34005,7.40834 0.14297,11.64019 -0.0505,13.52348 -1.77165,17.24876 -1.04191,2.25509 -1.8865,3.52103 -2.3491,3.52103 -0.17982,0 -0.73726,-0.4236 -1.23875,-0.94133 z m -4.78687,-10.0754 -4.13756,-4.13756 -1.64289,0.99801 -1.64289,0.998 -1.07746,-1.07746 c -1.2642,-1.26419 -1.19852,-1.44043 1.00714,-2.70237 2.88545,-1.65089 6.80704,-2.64106 10.45999,-2.64106 h 2.36395 v 0.76068 c 0,0.41837 0.0707,1.11401 0.15704,1.54586 l 0.15703,0.78519 -3.24172,0.16299 c -1.78295,0.0896 -3.35957,0.28083 -3.5036,0.42487 -0.17277,0.17277 0.85424,1.39845 3.01854,3.60246 1.80423,1.83733 3.27674,3.42105 3.27225,3.51938 -0.0337,0.73741 -0.48719,1.89857 -0.74151,1.89857 -0.17091,0 -2.17266,-1.8619 -4.44831,-4.13756 z m 34.86579,-28.73692 c -0.0877,-0.32742 -0.16116,-1.0418 -0.16315,-1.5875 l -0.004,-0.99219 1.38906,-0.002 c 2.2199,-0.003 4.96094,-0.31883 4.96094,-0.57161 0,-0.1278 -1.44359,-1.66068 -3.20796,-3.40639 l -3.20797,-3.17402 0.33193,-1.18555 c 0.18257,-0.65206 0.4072,-1.185556 0.49919,-1.185556 0.092,0 2.00984,1.845466 4.26189,4.101046 2.25205,2.25557 4.22215,4.10104 4.37799,4.10104 0.15584,0 0.96365,-0.40966 1.79513,-0.91035 l 1.51179,-0.91035 1.16441,1.13168 1.16442,1.13169 -1.45347,0.95718 c -3.04784,2.00717 -6.96302,3.0708 -11.37368,3.0899 -1.73694,0.008 -1.90009,-0.0393 -2.04691,-0.58715 z"
         style="fill:#666666;fill-opacity:1;stroke:#666666;stroke-width:0.264583" />
      <path
         id="path851"
         d="m 132.59576,150.91323 c -1.30539,-1.02682 -1.3196,-1.33821 -0.16418,-3.59809 1.79216,-3.50528 1.86901,-4.10156 1.81832,-14.10847 -0.043,-8.48262 -0.0191,-8.95451 0.55437,-10.98021 1.19184,-4.20972 3.33541,-7.32801 6.8856,-10.01662 3.22004,-2.43858 5.80457,-3.29806 10.60854,-3.52784 l 3.33267,-0.15941 0.17314,0.86573 c 0.0952,0.47616 0.17315,1.20805 0.17315,1.62642 v 0.76068 l -2.57968,0.0186 c -1.41883,0.0102 -2.79483,0.10346 -3.05778,0.20719 -0.39758,0.15683 0.0533,0.73767 2.67772,3.44937 3.09771,3.20077 3.15198,3.27769 2.94861,4.1794 -0.11395,0.50524 -0.28136,0.99281 -0.37204,1.08348 -0.0907,0.0907 -1.99374,-1.66117 -4.22904,-3.89299 -3.55903,-3.55347 -4.14544,-4.03745 -4.71787,-3.89378 -0.6201,0.15564 -3.0956,1.70929 -3.85697,2.42068 -0.29101,0.27191 0.64855,1.33563 5.22936,5.92039 3.07126,3.0739 5.7007,5.58892 5.8432,5.58892 0.37696,0 1.73824,-1.96185 2.5459,-3.6691 1.21676,-2.57203 1.55962,-5.57635 1.19669,-10.48611 -0.64202,-8.68518 -0.33604,-12.53257 1.28385,-16.143002 0.86422,-1.926186 2.03051,-3.83304 2.3444,-3.83304 0.2369,0 1.26071,0.914314 1.83827,1.641667 0.29711,0.374163 0.19508,0.71993 -0.70075,2.374692 -1.81678,3.355943 -1.91608,4.164333 -1.83502,14.939073 0.065,8.64612 0.0284,9.60457 -0.41316,10.81019 -1.78593,4.87619 -5.10044,8.69445 -9.43903,10.87361 -2.58316,1.29744 -4.40088,1.71771 -8.13426,1.88069 l -3.50573,0.15304 v -1.62503 -1.62502 h 2.64583 c 1.96017,0 2.64584,-0.0869 2.64584,-0.33545 0,-0.1845 -1.23185,-1.56312 -2.73745,-3.06359 -2.88929,-2.87945 -2.81453,-2.7298 -2.38923,-4.78312 0.12063,-0.58241 0.4913,-0.28371 4.02204,3.24115 2.74793,2.74334 4.06739,3.88268 4.49651,3.88268 0.6053,0 2.41205,-0.90208 3.8448,-1.91964 l 0.75439,-0.53578 -5.64687,-5.65146 c -3.10578,-3.1083 -5.70744,-5.65122 -5.78147,-5.65094 -0.39038,0.001 -2.02344,2.90469 -2.70988,4.81756 l -0.7871,2.19339 0.0325,9.0539 c 0.0355,9.88834 -0.0741,10.87715 -1.57985,14.25315 -0.85092,1.9078 -2.01703,3.81274 -2.33398,3.81274 -0.12407,0 -0.54005,-0.24736 -0.92439,-0.54969 z m -5.23917,-10.4742 -4.14472,-4.14472 -1.65501,0.98588 -1.65501,0.98589 -1.07838,-1.09005 -1.07839,-1.09004 0.79279,-0.64168 c 2.38937,-1.93395 6.63993,-3.27802 11.02204,-3.48527 l 3.08357,-0.14585 0.0914,1.62327 0.0914,1.62325 -1.98437,0.002 c -2.59395,0.002 -4.7625,0.27083 -4.7625,0.58958 0,0.13974 1.45851,1.73934 3.24114,3.55467 1.78263,1.81534 3.23747,3.38106 3.23298,3.47939 -0.0337,0.73738 -0.48719,1.89854 -0.74151,1.89854 -0.17091,0 -2.17588,-1.86512 -4.45548,-4.14472 z m 34.87859,-28.92613 c -0.0948,-0.47408 -0.17239,-1.18612 -0.17239,-1.58232 v -0.72035 l 3.10007,-0.17706 c 1.70503,-0.0974 3.18928,-0.26627 3.29831,-0.3753 0.10904,-0.10904 -1.29615,-1.68462 -3.12265,-3.50129 l -3.3209,-3.30304 0.37294,-1.19062 0.37295,-1.190627 4.23072,4.167187 c 2.3269,2.29195 4.34913,4.16719 4.49385,4.16719 0.14472,0 0.93322,-0.40351 1.75223,-0.89669 l 1.48909,-0.89668 1.15816,1.10971 1.15816,1.10971 -1.20761,0.83149 c -2.82179,1.94291 -5.88083,2.87808 -10.22949,3.12724 l -3.20105,0.18341 z"
         style="fill:#666666;fill-opacity:1;stroke:#666666;stroke-width:0.264583" />
      <path
         sodipodi:nodetypes="ccsccsccscsscccsccccssccsccssccccscccccsccsccccscccccscscsscccssscsccscssccccscssscssccc"
         id="path849"
         d="m 132.2696,150.52695 c -0.51478,-0.51478 -0.89691,-1.02079 -0.84917,-1.12448 0.0477,-0.10368 0.48972,-0.96242 0.98219,-1.9083 1.81227,-3.48079 1.89756,-4.12984 1.84283,-14.02292 -0.0421,-7.60434 -0.47752,-7.91724 -0.0911,-9.39271 0.96616,-3.6899 2.96397,-7.53463 5.52351,-10.06077 3.64553,-3.59796 7.12935,-5.07311 12.5989,-5.33474 l 3.35348,-0.1604 0.17359,1.26645 c 0.29057,2.11994 0.46151,1.98591 -2.5384,1.99039 -1.49158,0.002 -2.87695,0.10853 -3.07859,0.23623 -0.27788,0.17598 0.38093,0.9916 2.72157,3.36939 3.01167,3.05947 3.08523,3.16233 2.96855,4.15124 -0.0658,0.55772 -0.19342,1.08783 -0.28361,1.17801 -0.0902,0.0902 -1.97682,-1.64606 -4.19253,-3.85831 -2.21572,-2.21225 -4.21277,-4.02228 -4.43791,-4.02228 -0.48577,0 -3.33912,1.67173 -4.05341,2.37482 -0.48927,0.48161 -0.37794,0.61463 5.0981,6.09066 3.07906,3.07906 5.74493,5.55196 5.92416,5.49532 0.17922,-0.0566 0.76987,-0.75043 1.31255,-1.54178 2.21512,-3.23012 2.85898,-6.65541 2.37148,-12.61603 -0.72396,-8.8518 -0.28882,-12.897675 1.84968,-17.19806 1.47997,-2.976113 1.5953,-3.046084 2.88872,-1.752657 l 1.05249,1.052483 -1.03922,1.970018 c -1.82155,3.453076 -1.91719,4.234536 -1.83358,14.981786 l 0.0737,9.47782 -0.90127,2.24895 c -1.11821,2.7903 -1.70434,3.73106 -3.60099,5.77967 -3.77751,4.08016 -7.52269,5.74873 -13.55555,6.03933 l -3.50573,0.16886 v -1.6283 -1.62831 h 2.63022 c 1.44662,0 2.69055,-0.0976 2.7643,-0.21694 0.0737,-0.11932 -1.10986,-1.45665 -2.63022,-2.97184 -2.59837,-2.58952 -2.76406,-2.8187 -2.76025,-3.81795 0.002,-0.58468 0.0965,-1.20849 0.20939,-1.38624 0.13881,-0.21848 1.44367,0.91736 4.02742,3.50573 2.67732,2.6821 4.002,3.82891 4.42276,3.82891 0.65474,0 2.80354,-1.08194 3.89538,-1.96134 l 0.68558,-0.5522 -5.69064,-5.68063 c -5.44732,-5.43774 -5.70806,-5.65835 -6.09789,-5.15938 -0.94284,1.20678 -1.86131,2.97425 -2.45856,4.73117 -0.62694,1.84423 -0.63702,2.02363 -0.60413,10.7585 0.0297,7.89789 -0.0225,9.1173 -0.47117,10.99572 -0.69405,2.90587 -2.78385,7.24108 -3.49058,7.24108 -0.14854,0 -0.69127,-0.42119 -1.20605,-0.93597 z m -1.09259,-6.27393 c -0.12123,-0.1819 -1.9594,-2.04241 -4.08484,-4.13446 l -3.86443,-3.80374 -1.15383,0.62035 c -0.6346,0.34119 -1.36007,0.78948 -1.61215,0.99621 -0.41044,0.33661 -0.57378,0.25689 -1.56376,-0.76322 l -1.10545,-1.13909 0.74828,-0.59666 c 2.52127,-2.01038 7.68903,-3.54866 11.92155,-3.54866 h 2.23166 v 1.5875 1.5875 h -2.07974 c -2.67075,0 -4.53484,0.25798 -4.53484,0.6276 0,0.16009 1.4864,1.78102 3.30311,3.60206 l 3.3031,3.31097 -0.30479,0.99218 c -0.3075,1.00101 -0.79799,1.2705 -1.20387,0.66146 z m 31.057,-32.74597 c -0.0942,-0.47086 -0.17122,-1.18012 -0.17122,-1.57613 v -0.72002 l 3.21924,-0.17309 c 1.77058,-0.0952 3.28282,-0.23667 3.36052,-0.31437 0.0777,-0.0777 -1.37141,-1.65732 -3.22024,-3.51027 l -3.36152,-3.36899 0.33348,-1.15178 0.33347,-1.151793 4.23159,4.126193 c 2.32737,2.2694 4.34102,4.12926 4.47477,4.13303 0.13376,0.004 0.8761,-0.35035 1.64964,-0.78691 0.77355,-0.43656 1.52159,-0.79375 1.6623,-0.79375 0.14073,0 0.68748,0.44442 1.21502,0.98761 l 0.95916,0.98762 -0.74799,0.62584 c -1.0048,0.84072 -4.08625,2.25193 -6.03965,2.76598 -0.87312,0.22977 -2.96896,0.49858 -4.65742,0.59736 l -3.06993,0.17959 z"
         style="fill:#666666;fill-opacity:1;stroke:#666666;stroke-width:0.264583" />
    </g>
  </g>
</svg>
